<svg viewBox="0 0 319 416" fill="none" xmlns="http://www.w3.org/2000/svg">
<path d="M305.19 139.792V276.372C305.19 315.018 289.948 345.649 265.174 367.024C238.57 389.977 200.988 402.222 159.524 402.222C118.058 402.222 80.4764 389.978 53.8726 367.024C29.099 345.649 13.8565 315.019 13.8565 276.372V139.792C13.8565 101.145 29.099 70.5148 53.8726 49.1401C80.4764 26.1859 118.058 13.9421 159.524 13.9421C200.988 13.9421 238.57 26.1866 265.174 49.1404C289.948 70.5148 305.19 101.146 305.19 139.792ZM302.72 276.372V139.792C302.72 101.918 287.805 71.9189 263.562 51.003C237.418 28.446 200.409 16.4124 159.524 16.4124C118.638 16.4124 81.6284 28.4453 55.4842 51.0026C31.242 71.9185 16.3268 101.917 16.3268 139.792V276.372C16.3268 314.247 31.242 344.246 55.4842 365.161C81.6284 387.719 118.638 399.752 159.524 399.752C200.409 399.752 237.418 387.718 263.562 365.161C287.805 344.245 302.72 314.246 302.72 276.372Z" fill="#EAE9E7"/>
<path d="M318.93 135.656V280.508C318.93 322.13 302.185 355.132 274.97 378.171C245.858 402.817 204.792 415.964 159.524 415.964C114.254 415.964 73.1887 402.817 44.0765 378.172C16.862 355.132 0.117188 322.132 0.117188 280.508V135.656C0.117188 94.0326 16.862 61.032 44.0765 37.992C73.1887 13.3468 114.254 0.199738 159.524 0.199738C204.792 0.199738 245.858 13.3472 274.97 37.9927C302.185 61.0324 318.93 94.0337 318.93 135.656ZM312.342 280.508V135.656C312.342 96.1226 296.489 64.8221 270.725 43.0101C242.823 19.3888 203.265 6.78783 159.524 6.78783C115.782 6.78783 76.224 19.3884 48.322 43.0097C22.557 64.8217 6.7049 96.1219 6.7049 135.656V280.508C6.7049 320.042 22.557 351.342 48.322 373.154C76.224 396.776 115.782 409.376 159.524 409.376C203.265 409.376 242.823 396.775 270.725 373.154C296.489 351.342 312.342 320.042 312.342 280.508Z" fill="#EAE9E7"/>
<path d="M263.841 320.428L264.553 319.013L265.966 319.723L265.254 321.138L263.841 320.428Z" fill="#006C5C"/>
<path d="M168.908 255.384L167.864 264.619C160.113 264.842 147.991 265.956 140.621 267.608C129.411 270.121 120.831 273.708 114.88 278.37C108.929 283.031 106.509 287.839 107.63 292.835C108.822 298.155 113.306 301.416 121.124 302.607C128.942 303.797 139.577 302.906 152.98 299.902C168.861 296.341 181.4 289.862 190.669 280.403C199.939 270.946 203.474 261.409 201.306 251.742C200.077 246.258 197.274 241.939 192.839 238.71C188.404 235.481 180.168 232.422 168.153 229.442C151.644 225.252 140.642 220.893 135.117 216.416C129.641 211.97 125.986 205.751 124.21 197.831C122.416 189.83 123.457 181.15 127.39 171.865C131.323 162.58 137.757 153.416 146.743 144.406C152.818 138.394 159.427 133.244 166.602 128.906C173.745 124.617 180.48 121.741 186.735 120.339C193.802 118.754 199.722 119.092 204.534 121.34C209.347 123.588 212.343 127.439 213.545 132.8C220.275 162.823 175.501 184.362 152.291 193.141C151.575 193.411 152.134 193.206 151.46 193.453L150.614 183.68C166.481 177.081 208.784 155.784 203.573 136.272C202.714 133.055 201.292 130.854 198.915 129.766C196.538 128.678 193.279 128.598 189.054 129.545C184.303 130.611 178.88 133.063 172.838 136.934C166.786 140.765 160.678 145.675 154.594 151.647C146.528 159.427 140.695 167.09 137.119 174.546C133.545 182.003 132.429 188.822 133.794 194.914C135.024 200.398 137.953 204.902 142.601 208.51C147.239 212.077 154.185 215.084 163.508 217.473C165.694 218.092 168.978 218.849 173.286 219.803C183.128 222.033 190.063 224.232 194.158 226.513C198.884 228.951 202.886 232.149 206.221 236.179C209.547 240.169 211.677 244.341 212.633 248.605C215.556 261.643 211.357 273.931 200.087 285.501C188.776 297.081 172.724 305.201 151.847 309.881C136.454 313.332 123.94 313.834 114.337 311.337C104.742 308.881 99.0539 303.673 97.2692 295.712C95.6754 288.604 98.5693 281.344 105.959 273.971C113.35 266.598 123.381 261.491 136.094 258.641C146.142 256.388 158.532 255.07 168.908 255.384Z" fill="#EAE9E7"/>
<path d="M76.5721 94.9861C75.8567 95.996 75.0773 96.8872 74.247 97.653C73.4128 98.4232 72.5295 99.0631 71.5865 99.5798C70.642 100.087 69.6446 100.483 68.586 100.754L67.7276 97.8299C69.055 97.512 70.2581 96.9738 71.3382 96.2217C72.4188 95.4699 73.3758 94.505 74.2171 93.3175C75.3967 91.6522 75.9878 90.1393 75.9942 88.7824C75.9995 87.4169 75.4239 86.3287 74.2662 85.5078L74.2511 85.4976C73.4824 84.953 72.7287 84.7224 71.9887 84.8048C71.249 84.888 70.5445 85.1733 69.8638 85.653C69.1831 86.133 68.394 86.8095 67.4956 87.6905C67.465 87.7128 67.4385 87.7389 67.4094 87.7703C67.3803 87.8009 67.3489 87.8236 67.3187 87.8462L67.0375 88.1278C65.754 89.3868 64.6488 90.3505 63.7221 91.0108C62.7965 91.6802 61.725 92.054 60.5186 92.1383C59.3118 92.2233 58.0177 91.7728 56.6279 90.7882L56.6128 90.7776C55.3168 89.8596 54.4146 88.7836 53.9048 87.5495C53.4006 86.3189 53.2993 84.9674 53.6107 83.5149C53.9203 82.0545 54.6278 80.543 55.7416 78.9715C56.2723 78.222 56.8793 77.5425 57.5554 76.9332C58.2346 76.3194 58.9867 75.7793 59.8099 75.2971C60.6293 74.8189 61.5304 74.4142 62.5085 74.0782L63.4617 76.9215C62.2481 77.3497 61.1978 77.8709 60.3062 78.4825C59.4191 79.0974 58.6832 79.8121 58.097 80.6398C56.9832 82.2117 56.4416 83.6559 56.4692 84.9851C56.4968 86.3148 57.106 87.3972 58.2883 88.2351L58.3034 88.2454C59.0521 88.7764 59.8054 88.9771 60.5549 88.8489C61.3028 88.7121 62.0187 88.3916 62.6869 87.8874C63.3578 87.3787 64.2131 86.6307 65.2543 85.6511C65.2925 85.6186 65.3299 85.5864 65.3586 85.5471C65.3911 85.5112 65.4289 85.4783 65.4739 85.4364C65.5185 85.3944 65.5665 85.3465 65.6198 85.303C65.6765 85.2546 65.7298 85.2111 65.7744 85.1684C66.9487 84.0539 68.0183 83.191 68.9843 82.5806C69.9451 81.966 71.0113 81.6414 72.1837 81.6058C73.361 81.5741 74.6064 82.0197 75.9266 82.9548L75.9561 82.9759C77.2324 83.88 78.113 84.9556 78.5953 86.2074C79.0745 87.4641 79.143 88.83 78.8077 90.3169C78.4683 91.8083 77.7245 93.3605 76.5721 94.9861ZM91.7341 50.7279L94.4485 49.2731L106.597 71.948L103.883 73.4028L91.7341 50.7279ZM78.3848 57.8799L81.0996 56.4255L93.2481 79.1004L90.5337 80.5548L78.3848 57.8799ZM85.5863 67.1269L98.6431 60.1317L100.04 62.7392L86.984 69.7347L85.5863 67.1269ZM126.404 65.9337C124.598 66.3524 122.946 66.3385 121.456 65.903C119.959 65.4631 118.693 64.6282 117.661 63.4108C116.629 62.1934 115.889 60.6359 115.45 58.7412L113.804 51.6414C113.364 49.7414 113.342 48.0168 113.731 46.4638C114.12 44.9044 114.89 43.6038 116.042 42.5558C117.188 41.5088 118.667 40.7752 120.472 40.3565C122.273 39.9392 123.923 39.9471 125.425 40.3799C126.92 40.8145 128.185 41.643 129.214 42.8736C130.247 44.0963 130.981 45.6561 131.421 47.5561L133.068 54.6559C133.507 56.5506 133.535 58.2737 133.144 59.821C132.759 61.3669 131.989 62.6734 130.839 63.7272C129.681 64.7771 128.204 65.516 126.404 65.9337ZM125.732 63.0393C126.915 62.7653 127.88 62.2751 128.629 61.574C129.383 60.8725 129.882 60.0009 130.13 58.9574C130.377 57.9146 130.356 56.7543 130.06 55.4776L128.358 48.1362C128.059 46.8482 127.566 45.791 126.884 44.9633C126.203 44.136 125.371 43.5725 124.385 43.2743C123.404 42.9749 122.323 42.9647 121.141 43.2387C119.953 43.5143 118.986 43.9992 118.238 44.6995C117.483 45.4017 116.985 46.2737 116.743 47.3146C116.501 48.3566 116.53 49.5218 116.828 50.8103L118.531 58.1512C118.826 59.428 119.312 60.4802 119.988 61.3094C120.664 62.1383 121.495 62.7018 122.481 62.9996C123.462 63.2993 124.545 63.3148 125.732 63.0393ZM145.885 36.4273L148.964 36.3649L149.487 62.0835L146.409 62.1458L145.885 36.4273ZM148.1 59.2125L162.873 58.9117L162.932 61.8098L148.159 62.1103L148.1 59.2125ZM147.87 47.8928L160.693 47.6317L160.752 50.5298L147.928 50.7906L147.87 47.8928ZM147.636 36.3914L162.409 36.0909L162.468 38.9947L147.695 39.2955L147.636 36.3914ZM206.564 42.7353L208.619 43.2777L208.49 65.1086L218.708 45.9407L221.907 46.7854L208.932 69.9657L205.884 69.161L206.012 49.416L196.168 66.5966L193.127 65.7938L193.275 39.2279L196.475 40.0722L195.902 61.786L206.564 42.7353ZM241.488 59.0591L244.084 60.7043L238.327 87.511L235.487 85.7104L240.737 63.1085L222.546 77.5103L219.705 75.7098L241.488 59.0591ZM228.133 70.5772L239.563 77.821L238.009 80.2743L226.578 73.0309L228.133 70.5772ZM255.87 95.6298L246.935 101.056L245.337 98.4232L254.271 92.9977L263.118 78.1442L264.882 81.0499L257.672 92.7339L271.364 91.7233L273.126 94.6241L255.87 95.6298Z" fill="#EAE9E7"/>
<path d="M44.0882 308.817L44.3853 308.47L49.002 302.993L49.4695 304.48L45.7081 308.873L45.4171 309.209L40.5222 315.013L40.0543 313.523L44.0882 308.817ZM45.3385 308.373L51.1571 309.851L51.6238 311.338L44.4835 309.461L38.2855 307.893L37.8183 306.405L45.3385 308.373ZM45.9636 326.266L54.5447 321.714L54.8867 321.995L43.1524 320.965L42.5685 319.864L52.8904 314.39L53.5427 315.619L44.8762 320.215L44.6351 319.97L56.3656 320.941L56.9378 322.02L46.6156 327.495L45.9636 326.266ZM64.3986 332.733L65.2286 333.829L55.9072 340.888L55.0772 339.791L62.5716 334.116L62.2201 334.506L54.5 336.338L53.9067 335.554L57.6355 328.717L58.2369 328.392L50.7424 334.067L49.9072 332.965L59.229 325.906L60.059 327.002L55.7858 334.748L64.3986 332.733ZM72.717 341.438L73.7167 342.417L65.5332 350.769L64.5332 349.789L72.717 341.438ZM65.0378 345.218C64.5124 344.704 64.1658 344.16 63.9931 343.583C63.8204 343.01 63.8302 342.428 64.0237 341.842C64.2157 341.254 64.5869 340.68 65.1345 340.121L68.1906 337.002L69.1903 337.982L66.0934 341.142C65.5881 341.657 65.3378 342.195 65.3394 342.754C65.345 343.313 65.6009 343.845 66.1142 344.348C66.7238 344.946 67.3444 345.254 67.9752 345.276C68.6086 345.297 69.1941 345.033 69.7334 344.482L70.3812 343.821L70.7475 344.18L70.1409 344.8C69.5698 345.382 68.9881 345.788 68.3966 346.02C67.8029 346.248 67.2212 346.297 66.6512 346.161C66.0832 346.027 65.5419 345.712 65.0378 345.218ZM76.3094 359.078L81.7376 351.023L82.1719 351.11L71.3333 355.725L70.3004 355.029L76.8299 345.339L77.9838 346.117L72.5019 354.252L72.1731 354.15L82.9799 349.483L83.9928 350.167L77.4633 359.856L76.3094 359.078ZM86.1166 365.259C85.4094 364.864 84.8757 364.362 84.5144 363.748C84.1527 363.135 83.9868 362.457 84.0136 361.717C84.0397 360.978 84.2642 360.226 84.6871 359.469L86.2511 356.667C86.674 355.909 87.196 355.324 87.8117 354.914C88.4274 354.503 89.091 354.289 89.8046 354.272C90.5178 354.255 91.2268 354.443 91.934 354.838C92.5187 355.165 92.9896 355.588 93.3445 356.107C93.7013 356.623 93.9164 357.199 93.9976 357.832C94.0766 358.468 94.0086 359.112 93.7973 359.767L92.5606 359.076C92.654 358.667 92.6604 358.261 92.5826 357.86C92.5043 357.455 92.3509 357.093 92.1237 356.768C91.8955 356.445 91.6158 356.191 91.2824 356.006C90.8228 355.748 90.3583 355.634 89.8885 355.658C89.4157 355.684 88.9727 355.841 88.5585 356.131C88.145 356.423 87.7905 356.832 87.495 357.361L85.9314 360.163C85.6381 360.688 85.4771 361.201 85.4468 361.707C85.4162 362.212 85.5145 362.672 85.7435 363.083C85.9695 363.495 86.3108 363.83 86.7712 364.087C87.1087 364.276 87.4704 364.383 87.857 364.417C88.2452 364.448 88.6307 364.393 89.0147 364.252C89.3961 364.109 89.743 363.882 90.0518 363.57L91.2885 364.26C90.8417 364.785 90.3273 365.176 89.7441 365.439C89.1651 365.7 88.5585 365.817 87.9307 365.787C87.3018 365.76 86.6967 365.582 86.1166 365.259ZM101.079 360.173L102.361 360.736L97.9457 370.785L96.6637 370.222L101.079 360.173ZM98.2307 358.14L105.784 361.458L105.254 362.667L97.7001 359.348L98.2307 358.14ZM110.326 368.639L115.533 364.554L117.204 365.03L110.935 369.868L110.326 368.639ZM110.025 369.666L111.406 369.306L114.475 376.41L112.658 375.893L110.025 369.666ZM109.06 362.71L110.406 363.094L107.204 374.34L105.858 373.956L109.06 362.71ZM108.394 367.957L111.603 368.871L111.243 370.139L108.033 369.225L108.394 367.957ZM124.775 366.9L126.146 367.171L128.111 379.477L126.611 379.181L125.122 368.739L119.78 377.833L118.28 377.536L124.775 366.9ZM121.008 373.976L127.042 375.167L126.787 376.463L120.753 375.271L121.008 373.976ZM142.41 368.318L143.804 368.443L142.51 382.844L141.115 382.719L142.41 368.318ZM157.738 376.485L161.476 376.415C161.884 376.407 162.239 376.307 162.544 376.115C162.85 375.92 163.084 375.652 163.245 375.308C163.409 374.965 163.483 374.571 163.475 374.126C163.466 373.676 163.377 373.28 163.2 372.94C163.027 372.6 162.783 372.341 162.469 372.157C162.158 371.977 161.8 371.89 161.391 371.898L157.653 371.968L157.628 370.647L161.311 370.579C162.008 370.565 162.623 370.702 163.161 370.991C163.696 371.278 164.116 371.69 164.417 372.225C164.721 372.763 164.878 373.386 164.891 374.099C164.904 374.808 164.77 375.433 164.487 375.977C164.206 376.52 163.802 376.948 163.278 377.254C162.752 377.56 162.142 377.723 161.446 377.736L157.763 377.805L157.738 376.485ZM156.784 370.663L158.182 370.637L158.402 382.328L157.002 382.354L156.784 370.663ZM169.774 370.322L171.168 370.198L172.204 381.845L170.81 381.968L169.774 370.322ZM171.486 380.585L178.176 379.991L178.293 381.303L171.603 381.898L171.486 380.585ZM171.03 375.459L176.837 374.943L176.954 376.255L171.147 376.772L171.03 375.459ZM170.567 370.251L177.257 369.656L177.374 370.971L170.684 371.566L170.567 370.251ZM190.644 367.725L192.002 367.505L193.875 379.047L192.518 379.267L191.012 369.988L191.192 370.481L189.196 378.16L188.226 378.317L183.93 371.821L183.924 371.138L185.43 380.418L184.065 380.639L182.191 369.097L183.549 368.877L188.393 376.279L190.644 367.725ZM203.869 376.778C203.051 376.978 202.3 376.981 201.62 376.791C200.937 376.599 200.358 376.226 199.882 375.678C199.406 375.131 199.062 374.427 198.852 373.568L198.066 370.35C197.855 369.489 197.836 368.705 198.005 367.997C198.173 367.286 198.517 366.69 199.034 366.208C199.549 365.726 200.218 365.384 201.036 365.185C201.852 364.985 202.602 364.98 203.287 365.168C203.969 365.358 204.548 365.728 205.023 366.282C205.499 366.832 205.841 367.537 206.051 368.398L206.838 371.616C207.047 372.475 207.069 373.258 206.9 373.963C206.733 374.668 206.391 375.266 205.874 375.751C205.352 376.234 204.685 376.579 203.869 376.778ZM203.548 375.466C204.084 375.335 204.52 375.107 204.857 374.785C205.196 374.462 205.418 374.063 205.525 373.587C205.632 373.112 205.616 372.584 205.475 372.005L204.662 368.678C204.519 368.094 204.29 367.616 203.975 367.244C203.661 366.871 203.28 366.62 202.83 366.49C202.383 366.359 201.891 366.36 201.355 366.491C200.817 366.623 200.38 366.848 200.044 367.171C199.705 367.493 199.482 367.893 199.378 368.368C199.274 368.842 199.293 369.372 199.436 369.955L200.249 373.283C200.391 373.861 200.617 374.337 200.928 374.71C201.239 375.083 201.621 375.336 202.071 375.465C202.518 375.596 203.01 375.598 203.548 375.466ZM215.669 360.324L216.974 359.818L221.204 370.718L219.899 371.225L215.669 360.324ZM209.251 362.814L210.556 362.308L214.786 373.208L213.481 373.715L209.251 362.814ZM211.99 367.383L218.267 364.948L218.753 366.202L212.476 368.637L211.99 367.383ZM224.291 357.224L225.542 356.595L230.477 366.399L229.227 367.028L224.291 357.224ZM220.91 358.125L228.279 354.415L228.873 355.594L221.503 359.304L220.91 358.125ZM247.391 355.837C246.715 356.341 246.025 356.637 245.326 356.728C244.622 356.818 243.943 356.701 243.29 356.384C242.639 356.065 242.046 355.552 241.517 354.844L239.535 352.189C239.005 351.479 238.681 350.765 238.559 350.048C238.436 349.327 238.519 348.645 238.807 347.998C239.093 347.353 239.575 346.778 240.25 346.274C240.923 345.772 241.611 345.473 242.315 345.379C243.017 345.286 243.695 345.401 244.348 345.725C245.001 346.045 245.592 346.56 246.122 347.271L248.104 349.925C248.633 350.634 248.959 351.346 249.079 352.061C249.201 352.775 249.12 353.459 248.834 354.108C248.543 354.756 248.063 355.334 247.391 355.837ZM246.582 354.755C247.024 354.424 247.336 354.044 247.52 353.616C247.706 353.186 247.754 352.732 247.667 352.252C247.579 351.773 247.359 351.294 247.002 350.817L244.953 348.072C244.593 347.59 244.195 347.24 243.76 347.021C243.325 346.801 242.876 346.717 242.411 346.774C241.948 346.828 241.497 347.021 241.055 347.352C240.61 347.683 240.296 348.061 240.113 348.49C239.927 348.919 239.879 349.374 239.968 349.851C240.058 350.329 240.282 350.809 240.642 351.291L242.692 354.035C243.048 354.513 243.442 354.862 243.875 355.083C244.308 355.305 244.757 355.388 245.221 355.332C245.684 355.278 246.138 355.086 246.582 354.755ZM254.738 347.722L257.459 345.158C257.765 344.871 257.964 344.559 258.067 344.219C258.167 343.88 258.167 343.537 258.064 343.183C257.96 342.832 257.758 342.498 257.457 342.178C257.146 341.849 256.821 341.623 256.477 341.498C256.131 341.375 255.786 341.353 255.442 341.432C255.098 341.515 254.776 341.698 254.47 341.986L251.749 344.549L250.844 343.588L253.525 341.062C254.047 340.571 254.598 340.244 255.176 340.088C255.753 339.933 256.326 339.948 256.895 340.136C257.464 340.328 257.994 340.683 258.488 341.207C258.975 341.724 259.297 342.274 259.451 342.849C259.604 343.428 259.585 344.001 259.393 344.566C259.203 345.133 258.844 345.664 258.322 346.155L255.641 348.68L254.738 347.722ZM247.008 340.749L248.027 339.789L256.044 348.301L255.026 349.26L247.008 340.749ZM247.588 340.203L252.241 335.82L253.146 336.781L248.493 341.164L247.588 340.203ZM254.18 333.382L255.122 332.109L264.168 334.391L264.732 335.83L254.18 333.382ZM264.966 333.922C265.351 334.518 265.621 335.059 265.776 335.54C265.933 336.025 265.976 336.48 265.904 336.905C265.83 337.331 265.641 337.754 265.33 338.173L264.618 339.136L263.533 338.333L264.245 337.37C264.438 337.11 264.546 336.839 264.578 336.555C264.609 336.27 264.558 335.96 264.43 335.62C264.299 335.28 264.087 334.887 263.789 334.442L258.81 327.124L259.728 325.884L264.966 333.922ZM271.239 327.053L272.681 324.205C273.093 323.393 273.242 322.723 273.123 322.198C273.004 321.673 272.665 321.268 272.107 320.985L272.085 320.974C271.703 320.78 271.338 320.681 270.995 320.677C270.651 320.675 270.33 320.78 270.034 321C269.738 321.215 269.474 321.553 269.241 322.013L267.617 325.218L266.476 324.64L268.1 321.435C268.41 320.825 268.501 320.297 268.381 319.848C268.26 319.402 267.926 319.039 267.38 318.763C266.812 318.475 266.301 318.428 265.847 318.626C265.394 318.821 264.994 319.258 264.649 319.939L263.127 322.943L261.972 322.357L263.618 319.108C263.959 318.435 264.361 317.928 264.82 317.592C265.281 317.253 265.776 317.076 266.31 317.067C266.846 317.055 267.405 317.196 267.99 317.493C268.343 317.671 268.641 317.909 268.884 318.207C269.127 318.503 269.289 318.852 269.37 319.25C269.452 319.649 269.422 320.077 269.285 320.537C269.562 320.148 269.895 319.861 270.285 319.674C270.678 319.488 271.093 319.403 271.527 319.42C271.966 319.436 272.388 319.549 272.8 319.758L272.822 319.769C273.385 320.054 273.818 320.431 274.123 320.899C274.429 321.364 274.58 321.89 274.579 322.471C274.58 323.053 274.423 323.654 274.11 324.27L272.402 327.642L271.239 327.053ZM261.535 323.219L262.167 321.971L272.598 327.255L271.965 328.504L261.535 323.219ZM280.512 308.97L271.366 305.699L271.343 305.257L278.493 314.62L278.073 315.793L267.071 311.859L267.539 310.548L276.776 313.851L276.758 314.195L269.568 304.875L269.979 303.725L280.981 307.659L280.512 308.97Z" fill="#EAE9E7"/>
<path d="M43.9533 308.702L44.3086 308.287L38.0841 306.658L38.4253 307.745L43.6418 309.065L43.9533 308.702ZM44.5202 308.585L44.0262 309.163L45.0097 309.416L45.6726 308.641L44.6876 308.386L44.5202 308.585ZM44.5618 307.986L49.0749 302.632L49.6683 304.521L46.314 308.438L51.2965 309.703L51.8895 311.591L45.1363 309.817L40.4497 315.375L39.8559 313.482L43.3837 309.367L38.146 308.041L37.553 306.153L44.5618 307.986ZM48.9294 303.354L44.9412 308.085L45.9304 308.34L49.2707 304.439L48.9294 303.354ZM46.0566 308.738L45.3899 309.516L51.3581 311.084L51.0176 309.999L46.0566 308.738ZM40.5944 314.652L44.7561 309.717L43.7681 309.463L40.2531 313.563L40.5944 314.652ZM45.8808 326.109L53.5242 322.055L43.0417 321.134L42.3288 319.791C45.8699 317.904 49.4166 316.024 52.964 314.15L53.7823 315.692L45.8619 319.893L56.4767 320.772L57.1779 322.094C53.6304 323.968 50.0829 325.848 46.5423 327.735L45.724 326.192L45.8808 326.109ZM54.1028 321.748L54.5662 321.502L55.4415 322.223L54.1739 322.112L46.2032 326.339L46.6897 327.255L56.6982 321.946L56.2549 321.11L45.2795 320.203L44.8426 320.435L44.1729 319.754L45.2073 319.839L53.3031 315.545L52.8167 314.629L42.8077 319.938L43.2635 320.796L54.1028 321.748ZM64.5408 332.626L65.4781 333.864C62.2723 336.281 59.0668 338.704 55.8728 341.137L54.8281 339.757L61.2008 334.931L54.4286 336.538L53.6961 335.57L56.9636 329.579L50.7084 334.317L49.6585 332.93C52.856 330.501 56.0599 328.078 59.2634 325.657L60.2706 326.986C58.8843 329.481 57.5123 331.985 56.1339 334.484L64.4712 332.533L64.5408 332.626ZM64.9799 333.795L64.3268 332.932L63.7576 333.065L62.3142 334.667L62.058 334.728L55.3259 339.826L55.9416 340.639L64.9799 333.795ZM61.9045 334.398L63.6246 333.096L55.4374 335.013L59.4894 327.667L57.6507 329.059L54.1172 335.538L54.5715 336.138L61.9045 334.398ZM57.3774 328.82L57.5059 328.586C58.2028 328.201 58.9081 327.828 59.6088 327.451L59.8481 327.017L59.1946 326.155L50.1562 332.999L50.7772 333.819L57.3774 328.82ZM72.8413 341.311L73.9673 342.415L65.5359 351.019L64.2826 349.792L67.6086 346.397L67.5288 346.405C67.2197 346.43 66.912 346.407 66.61 346.335C66.3099 346.263 66.0148 346.144 65.729 345.977C65.4478 345.812 65.175 345.601 64.9134 345.345C64.642 345.079 64.4145 344.803 64.2339 344.519C64.0498 344.232 63.9126 343.936 63.8226 343.634C63.7316 343.331 63.6885 343.023 63.6938 342.715C63.699 342.406 63.7531 342.095 63.8548 341.786C63.9546 341.48 64.1027 341.175 64.2958 340.875C64.4875 340.579 64.7256 340.285 65.0079 339.997L68.1884 336.751L69.4409 337.98L66.2196 341.266C65.9826 341.508 65.8042 341.756 65.6875 342.006C65.5733 342.25 65.5162 342.5 65.5166 342.753C65.5189 343.005 65.5794 343.253 65.6961 343.495C65.8156 343.742 65.9966 343.984 66.2385 344.221C66.5284 344.505 66.8209 344.721 67.115 344.868C67.4026 345.011 67.6925 345.089 67.9812 345.099C68.2696 345.108 68.5489 345.052 68.8169 344.931C69.08 344.813 69.3358 344.63 69.5815 344.384L72.7147 341.187L72.8413 341.311ZM73.4661 342.42L72.7193 341.688L70.6318 343.819L70.9981 344.178L70.2671 344.924C69.9753 345.221 69.679 345.476 69.3793 345.685C69.0781 345.897 68.7704 346.064 68.4609 346.185L68.236 346.263L64.7838 349.786L65.5306 350.518L73.4661 342.42ZM68.047 345.95L68.603 345.382C68.3966 345.437 68.185 345.46 67.9695 345.453C67.6271 345.441 67.2892 345.353 66.9566 345.186C66.6312 345.024 66.3084 344.786 65.9902 344.474C65.7192 344.209 65.5143 343.933 65.3768 343.649C65.2365 343.36 65.1647 343.061 65.1621 342.755C65.161 342.449 65.2298 342.148 65.3666 341.855C65.5 341.569 65.7011 341.289 65.9668 341.018L68.9394 337.984L68.1929 337.252L65.2607 340.245C64.9962 340.515 64.7732 340.79 64.5948 341.067C64.4187 341.34 64.2837 341.618 64.1927 341.897C64.1019 342.174 64.0532 342.45 64.0487 342.72C64.0437 342.991 64.0827 343.263 64.1636 343.532C64.2452 343.806 64.3684 344.071 64.5328 344.329C64.6984 344.589 64.9089 344.844 65.1621 345.092C65.4032 345.328 65.6527 345.522 65.9086 345.671C66.161 345.819 66.423 345.925 66.6913 345.988C66.9581 346.051 67.2287 346.072 67.5009 346.05C67.6819 346.035 67.8641 346.002 68.047 345.95ZM70.3839 344.072L68.9299 345.556L69.1752 345.395C69.4568 345.199 69.7365 344.958 70.0143 344.676L70.4969 344.183L70.3839 344.072ZM76.162 358.979L80.9968 351.804L71.3144 355.927L70.0536 355.077C72.2918 351.746 74.5387 348.42 76.7819 345.093L78.2309 346.069L73.2204 353.504L82.9992 349.282L84.24 350.119C81.9927 353.442 79.742 356.769 77.5121 360.103L76.063 359.127L76.162 358.979ZM81.3615 351.262L81.6563 350.826L82.7671 351.05L81.5985 351.547L76.5562 359.03L77.4153 359.609L83.746 350.215L82.9607 349.685L72.8527 354.05L72.576 354.461L71.6625 354.177L72.6153 353.765L77.737 346.165L76.8779 345.586L70.5472 354.981L71.353 355.524L81.3615 351.262ZM86.03 365.414C85.6638 365.21 85.3418 364.976 85.0643 364.715C84.7862 364.452 84.5511 364.159 84.3617 363.838C84.1727 363.517 84.0337 363.178 83.9464 362.824C83.859 362.469 83.822 362.098 83.836 361.711C83.8496 361.325 83.915 360.936 84.0314 360.548C84.147 360.163 84.3141 359.773 84.5322 359.383L86.0961 356.581C86.3135 356.191 86.5576 355.845 86.8256 355.543C87.0958 355.239 87.3933 354.979 87.713 354.766C88.0339 354.552 88.3699 354.388 88.7173 354.276C89.0646 354.164 89.4267 354.103 89.8005 354.094C90.1739 354.086 90.5473 354.131 90.9169 354.229C91.2854 354.326 91.6536 354.479 92.0206 354.684C92.3241 354.853 92.6 355.049 92.8441 355.269C93.0887 355.489 93.3052 355.736 93.4904 356.006C93.676 356.274 93.8257 356.56 93.9387 356.859C94.0528 357.16 94.1314 357.478 94.1734 357.81C94.2146 358.14 94.2176 358.474 94.1828 358.81C94.1484 359.145 94.0751 359.482 93.9663 359.821L93.9001 360.027L92.3581 359.166L92.3875 359.037C92.4314 358.844 92.4552 358.652 92.4586 358.464C92.4616 358.274 92.445 358.083 92.408 357.893C92.3713 357.702 92.3165 357.521 92.2454 357.352C92.174 357.183 92.0844 357.021 91.9794 356.87C91.8713 356.718 91.7522 356.582 91.6237 356.466C91.4952 356.35 91.352 356.247 91.1962 356.161C90.9797 356.04 90.7624 355.952 90.5469 355.899C90.3319 355.845 90.1149 355.825 89.8972 355.836C89.6795 355.847 89.466 355.89 89.2607 355.963C89.0544 356.036 88.8537 356.141 88.6609 356.277C88.4655 356.414 88.2837 356.58 88.1163 356.774C87.9474 356.968 87.7916 357.194 87.6499 357.447L86.0863 360.25C85.9461 360.501 85.8365 360.75 85.7598 360.995C85.6838 361.237 85.6381 361.479 85.6241 361.717C85.6101 361.954 85.626 362.18 85.6717 362.394C85.7174 362.606 85.7934 362.808 85.8985 362.996C86.0032 363.187 86.1351 363.361 86.2934 363.516C86.4529 363.672 86.6419 363.811 86.8577 363.932C87.0142 364.02 87.1782 364.089 87.3468 364.14C87.5146 364.19 87.6911 364.223 87.8722 364.239C88.0528 364.253 88.2335 364.248 88.4123 364.223C88.5937 364.197 88.7747 364.151 88.9535 364.085C89.1322 364.019 89.3031 363.932 89.4641 363.826C89.6258 363.72 89.78 363.593 89.9263 363.445L90.0212 363.35L91.5644 364.211L91.4234 364.376C91.1921 364.647 90.9423 364.886 90.675 365.089C90.4071 365.293 90.1202 365.465 89.8171 365.601C89.5147 365.737 89.2037 365.837 88.8881 365.897C88.5729 365.957 88.2501 365.98 87.9224 365.965C87.5955 365.951 87.2719 365.897 86.9579 365.805C86.6423 365.713 86.3324 365.582 86.03 365.414ZM85.307 364.456C85.5629 364.697 85.8622 364.914 86.2027 365.104C86.4817 365.259 86.767 365.38 87.0569 365.465C87.3441 365.548 87.6393 365.598 87.9383 365.61C88.2376 365.624 88.5332 365.603 88.8219 365.548C89.1103 365.493 89.3945 365.402 89.6716 365.277C89.9501 365.152 90.214 364.994 90.4596 364.807C90.6524 364.66 90.8353 364.493 91.0088 364.308L90.0805 363.789C89.9467 363.914 89.8058 364.025 89.6584 364.122C89.4739 364.243 89.2789 364.342 89.0763 364.418C88.8718 364.493 88.667 364.546 88.4629 364.575C88.2565 364.604 88.049 364.61 87.8431 364.594C87.6367 364.576 87.4364 364.538 87.2444 364.48C87.0516 364.423 86.8638 364.342 86.6842 364.242C86.4416 364.106 86.2277 363.948 86.0451 363.77C85.8629 363.591 85.7099 363.39 85.5886 363.169C85.4657 362.949 85.3769 362.714 85.3244 362.469C85.2715 362.223 85.2529 361.964 85.2692 361.696C85.2847 361.43 85.3361 361.16 85.4211 360.89C85.505 360.621 85.6241 360.349 85.7764 360.077L87.34 357.275C87.4931 357 87.6631 356.754 87.8483 356.541C88.035 356.325 88.2384 356.14 88.4565 355.986C88.6768 355.832 88.9058 355.712 89.1421 355.628C89.379 355.543 89.6258 355.494 89.8798 355.481C90.1308 355.468 90.3825 355.492 90.6316 355.554C90.8791 355.615 91.1259 355.714 91.3693 355.851C91.5458 355.949 91.7103 356.067 91.8611 356.204C92.0115 356.341 92.1483 356.496 92.2685 356.665C92.3894 356.838 92.4911 357.022 92.5724 357.215C92.654 357.409 92.716 357.614 92.7572 357.827C92.7984 358.038 92.8169 358.253 92.8131 358.469C92.8105 358.641 92.7927 358.813 92.761 358.985L93.6904 359.504C93.758 359.259 93.8049 359.015 93.8298 358.774C93.8612 358.467 93.8585 358.159 93.8211 357.854C93.783 357.551 93.7108 357.259 93.6064 356.984C93.5036 356.712 93.3668 356.452 93.1983 356.208C93.0293 355.96 92.8313 355.735 92.6068 355.533C92.3819 355.33 92.1275 355.15 91.8478 354.993C91.5077 354.804 91.1668 354.662 90.8262 354.572C90.488 354.483 90.1478 354.441 89.8088 354.449C89.4698 354.457 89.1406 354.513 88.8257 354.614C88.5101 354.715 88.2032 354.866 87.91 355.061C87.6148 355.259 87.3407 355.498 87.0909 355.779C86.8392 356.062 86.6105 356.387 86.4061 356.754L84.8421 359.555C84.6376 359.921 84.4808 360.287 84.3719 360.649C84.2638 361.01 84.203 361.37 84.1909 361.723C84.1784 362.077 84.2113 362.417 84.2907 362.739C84.37 363.06 84.4955 363.367 84.6671 363.658C84.8383 363.949 85.0526 364.216 85.307 364.456ZM101.15 360.01L102.595 360.645L102.352 361.198L105.163 362.433L105.551 361.549L98.3218 358.373L97.9332 359.257L100.745 360.492L100.988 359.939L101.15 360.01ZM102.127 360.827L101.17 360.406L101.069 360.635L102.027 361.055L102.127 360.827ZM102.209 361.523L98.0364 371.019L96.4301 370.313L100.602 360.817L97.4665 359.439L98.1404 357.906L106.018 361.368L105.345 362.901L102.209 361.523ZM97.8546 370.552L101.884 361.38L100.927 360.959L96.8969 370.131L97.8546 370.552ZM110.411 368.347L115.496 364.359L117.591 364.956L111.688 369.511L114.787 376.683L112.528 376.041L109.955 369.957L108.736 369.609L107.327 374.56L105.639 374.079C106.737 370.216 107.831 366.351 108.938 362.491L110.626 362.972L109.194 368L110.411 368.347ZM115.571 364.75L110.832 368.467L111.823 368.749L111.746 369.017L116.817 365.104L115.571 364.75ZM110.704 369.801L110.648 369.688L110.469 369.734L110.704 369.801ZM110.487 369.362L110.126 368.635L109.097 368.342L108.833 369.268L109.798 369.543L110.487 369.362ZM110.587 368.767L110.837 369.271L111.343 369.139L111.384 368.994L110.587 368.767ZM114.163 376.136L111.484 369.937L111.365 370.359L110.392 370.081L112.788 375.745L114.163 376.136ZM110.187 363.216L109.183 362.93L106.078 373.834L107.082 374.121L108.394 369.512L107.813 369.347L108.272 367.738L108.852 367.903L110.187 363.216ZM108.491 369.17L108.755 368.245L108.516 368.177L108.252 369.102L108.491 369.17ZM124.809 366.726L126.302 367.02C126.963 371.248 127.646 375.477 128.327 379.701L126.454 379.332L126.049 376.499L121.318 375.564L119.868 378.032L117.996 377.662C120.219 374.006 122.447 370.347 124.689 366.702L124.809 366.726ZM125.99 367.322L124.862 367.099L118.564 377.411L119.691 377.634L120.95 375.491L120.544 375.412L120.869 373.767L121.849 373.961L125.227 368.212L126.168 374.814L127.22 375.022L125.99 367.322ZM127.896 379.253L127.235 375.113L126.928 376.672L126.418 376.571L126.77 379.031L127.896 379.253ZM125.996 376.126L125.852 375.114L122.026 374.359L121.509 375.239L125.996 376.126ZM125.799 374.74L125.017 369.266L122.217 374.034L125.799 374.74ZM126.221 375.187L126.365 376.198L126.647 376.254L126.833 375.308L126.221 375.187ZM121.141 375.167L121.658 374.286L121.148 374.185L120.962 375.131L121.141 375.167ZM142.425 368.141L143.997 368.282L142.67 383.037L140.923 382.88C141.353 377.963 141.794 373.041 142.25 368.126L142.425 368.141ZM143.612 368.604L142.57 368.51L141.307 382.559L142.349 382.652L143.612 368.604ZM157.735 376.307L158.112 376.301L158.033 372.138L157.479 372.149L157.454 370.828L156.964 370.838L157.177 382.174L158.221 382.154L158.143 377.976L157.589 377.986L157.558 376.311L157.735 376.307ZM158.466 376.294L161.473 376.237C161.661 376.234 161.838 376.209 162.001 376.163C162.162 376.118 162.312 376.052 162.448 375.965C162.587 375.878 162.709 375.772 162.815 375.651C162.92 375.529 163.011 375.389 163.084 375.233C163.159 375.074 163.215 374.904 163.25 374.722C163.285 374.537 163.301 374.337 163.298 374.129C163.294 373.918 163.27 373.718 163.228 373.531C163.186 373.348 163.123 373.177 163.043 373.021C162.963 372.865 162.867 372.728 162.758 372.611C162.648 372.493 162.522 372.393 162.381 372.31C162.24 372.229 162.087 372.168 161.926 372.129C161.762 372.09 161.584 372.072 161.394 372.075L158.388 372.132L158.466 376.294ZM161.479 376.592L158.473 376.649L158.491 377.614L161.443 377.559C161.775 377.553 162.088 377.51 162.38 377.433C162.67 377.357 162.94 377.245 163.189 377.1C163.436 376.957 163.655 376.784 163.844 376.583C164.034 376.383 164.197 376.152 164.329 375.895C164.463 375.637 164.563 375.358 164.626 375.063C164.691 374.763 164.72 374.442 164.714 374.103C164.707 373.761 164.666 373.439 164.591 373.14C164.515 372.842 164.405 372.565 164.262 372.312C164.12 372.059 163.949 371.834 163.753 371.641C163.556 371.448 163.33 371.282 163.077 371.148C162.822 371.011 162.548 370.909 162.257 370.845C161.963 370.779 161.648 370.75 161.314 370.756L158.363 370.812L158.381 371.777L161.388 371.721C161.606 371.716 161.813 371.738 162.008 371.784C162.205 371.832 162.39 371.905 162.559 372.003C162.729 372.104 162.883 372.227 163.016 372.369C163.149 372.511 163.264 372.675 163.358 372.859C163.453 373.041 163.525 373.24 163.574 373.452C163.621 373.661 163.648 373.885 163.652 374.123C163.657 374.358 163.639 374.581 163.599 374.788C163.558 375 163.493 375.198 163.405 375.384C163.318 375.57 163.21 375.737 163.083 375.883C162.955 376.03 162.807 376.158 162.639 376.264C162.471 376.37 162.29 376.451 162.097 376.505C161.905 376.559 161.698 376.589 161.479 376.592ZM158.118 376.655L157.919 376.659L157.937 377.625L158.136 377.621L158.118 376.655ZM157.827 371.787L158.027 371.784L158.008 370.818L157.809 370.822L157.827 371.787ZM157.589 370.471L161.308 370.401C161.669 370.395 162.012 370.427 162.334 370.498C162.658 370.57 162.962 370.683 163.245 370.835C163.527 370.986 163.78 371.171 164.001 371.389C164.222 371.606 164.414 371.857 164.572 372.138C164.731 372.422 164.852 372.728 164.935 373.052C165.017 373.378 165.062 373.726 165.069 374.096C165.075 374.464 165.043 374.811 164.974 375.137C164.903 375.466 164.793 375.774 164.645 376.059C164.496 376.344 164.316 376.601 164.103 376.826C163.891 377.051 163.645 377.245 163.368 377.406C163.091 377.569 162.791 377.692 162.471 377.776C162.153 377.861 161.811 377.907 161.449 377.913L158.498 377.969L158.583 382.502L156.828 382.536C156.745 378.521 156.677 374.505 156.603 370.49L157.589 370.471ZM169.759 370.145L177.418 369.464L177.566 371.132L171.477 371.674L171.792 375.214L176.998 374.751L177.146 376.416L171.941 376.88L172.248 380.34L178.337 379.799L178.485 381.464C175.874 381.691 173.261 381.925 170.649 382.161C170.291 378.161 169.932 374.161 169.582 370.161L169.759 370.145ZM170.406 370.443L169.966 370.482L170.971 381.776L171.411 381.737L171.294 380.425L171.895 380.371L171.588 376.911L170.986 376.964L170.838 375.299L171.439 375.245L171.125 371.705L170.523 371.759L170.406 370.443ZM171.361 370.359L171.446 371.321L177.182 370.811L177.096 369.849L171.361 370.359ZM171.824 375.567L171.909 376.527L176.761 376.095L176.676 375.135L171.824 375.567ZM172.28 380.693L172.365 381.652L178.101 381.142L178.015 380.183L172.28 380.693ZM172.012 381.683L171.927 380.724L171.679 380.746L171.764 381.706L172.012 381.683ZM171.556 376.558L171.471 375.598L171.222 375.62L171.307 376.58L171.556 376.558ZM171.093 371.352L171.008 370.39L170.759 370.412L170.844 371.374L171.093 371.352ZM190.616 367.55L192.149 367.302C192.785 371.267 193.435 375.23 194.079 379.194L192.371 379.471L191.09 371.578L189.339 378.317L188.141 378.511L184.376 372.819L185.634 380.565L183.918 380.843C183.273 376.88 182.623 372.916 181.988 368.951L183.634 368.684L188.323 375.848L190.502 367.569L190.616 367.55ZM191.855 367.709L190.787 367.882L190.638 368.447L191.378 370.473L191.311 370.726L192.664 379.064L193.672 378.9L191.855 367.709ZM190.949 370.709L190.603 368.579L188.464 376.711L183.869 369.69L184.238 371.966L188.311 378.124L189.053 378.004L190.949 370.709ZM183.9 372.098L183.753 371.876L183.733 369.483L183.463 369.071L182.395 369.244L184.212 380.436L185.227 380.271L183.9 372.098ZM203.911 376.95C203.489 377.053 203.083 377.106 202.695 377.108C202.304 377.11 201.929 377.061 201.574 376.962C201.215 376.862 200.883 376.713 200.579 376.518C200.274 376.323 199.996 376.081 199.748 375.794C199.5 375.509 199.285 375.181 199.107 374.817C198.931 374.456 198.788 374.052 198.68 373.61L197.893 370.391C197.785 369.948 197.725 369.523 197.715 369.12C197.705 368.714 197.744 368.326 197.832 367.956C197.919 367.585 198.054 367.242 198.235 366.928C198.415 366.615 198.642 366.331 198.914 366.078C199.183 365.826 199.493 365.611 199.84 365.433C200.185 365.257 200.57 365.116 200.995 365.013C201.416 364.909 201.822 364.856 202.21 364.854C202.6 364.851 202.975 364.899 203.334 364.997C203.692 365.097 204.025 365.244 204.328 365.439C204.632 365.634 204.909 365.877 205.158 366.166C205.405 366.453 205.618 366.78 205.796 367.147C205.973 367.509 206.115 367.914 206.224 368.356L207.01 371.575C207.118 372.017 207.178 372.441 207.188 372.845C207.199 373.248 207.16 373.636 207.073 374.003C206.986 374.373 206.851 374.715 206.672 375.029C206.492 375.342 206.265 375.627 205.995 375.881C205.721 376.134 205.409 376.352 205.06 376.531C204.715 376.706 204.331 376.848 203.911 376.95ZM202.694 376.753C203.054 376.751 203.433 376.702 203.828 376.606C204.22 376.51 204.578 376.379 204.898 376.215C205.218 376.051 205.503 375.853 205.753 375.622C205.998 375.391 206.202 375.134 206.364 374.852C206.525 374.57 206.647 374.259 206.727 373.923C206.808 373.586 206.843 373.229 206.834 372.854C206.824 372.475 206.767 372.075 206.666 371.658L205.879 368.439C205.777 368.023 205.643 367.642 205.477 367.3C205.313 366.962 205.116 366.661 204.889 366.398C204.662 366.134 204.411 365.914 204.137 365.738C203.863 365.562 203.563 365.429 203.24 365.339C202.914 365.25 202.571 365.206 202.211 365.209C201.851 365.211 201.472 365.261 201.078 365.357C200.683 365.453 200.324 365.584 200.002 365.749C199.683 365.912 199.399 366.108 199.155 366.337C198.909 366.567 198.704 366.823 198.542 367.105C198.38 367.387 198.257 367.698 198.178 368.037C198.096 368.375 198.061 368.734 198.07 369.112C198.08 369.491 198.136 369.89 198.238 370.308L199.024 373.527C199.125 373.941 199.26 374.32 199.426 374.661C199.591 375 199.789 375.3 200.016 375.562C200.243 375.824 200.495 376.044 200.77 376.219C201.044 376.394 201.345 376.529 201.668 376.62C201.992 376.71 202.336 376.755 202.694 376.753ZM203.507 375.294C203.758 375.233 203.988 375.147 204.194 375.04C204.399 374.933 204.579 374.805 204.734 374.657C204.89 374.508 205.02 374.34 205.123 374.156C205.225 373.972 205.302 373.769 205.352 373.549C205.402 373.326 205.423 373.088 205.416 372.839C205.408 372.588 205.37 372.323 205.303 372.047L204.49 368.72C204.421 368.44 204.332 368.186 204.223 367.959C204.116 367.735 203.987 367.534 203.839 367.359C203.694 367.185 203.532 367.04 203.356 366.924C203.181 366.809 202.988 366.72 202.781 366.66C202.573 366.6 202.354 366.57 202.126 366.57C201.893 366.571 201.649 366.602 201.397 366.663C201.143 366.725 200.911 366.81 200.705 366.917C200.502 367.022 200.321 367.15 200.166 367.298C200.01 367.447 199.88 367.615 199.778 367.798C199.676 367.982 199.6 368.185 199.552 368.405C199.503 368.627 199.483 368.865 199.492 369.114C199.5 369.367 199.54 369.635 199.608 369.914L200.421 373.241C200.488 373.515 200.577 373.768 200.685 373.997C200.792 374.221 200.919 374.421 201.064 374.597C201.209 374.77 201.37 374.915 201.546 375.031C201.721 375.147 201.914 375.236 202.12 375.295C202.327 375.355 202.547 375.387 202.775 375.387C203.007 375.387 203.252 375.356 203.507 375.294ZM204.358 375.356C204.13 375.474 203.873 375.57 203.59 375.638C203.307 375.708 203.035 375.742 202.775 375.742C202.513 375.741 202.26 375.705 202.021 375.636C201.78 375.566 201.555 375.463 201.35 375.327C201.145 375.192 200.959 375.024 200.792 374.824C200.627 374.627 200.484 374.401 200.365 374.15C200.247 373.903 200.151 373.627 200.077 373.325L199.264 369.997C199.189 369.694 199.146 369.402 199.137 369.126C199.127 368.848 199.15 368.582 199.205 368.33C199.26 368.076 199.349 367.84 199.468 367.626C199.587 367.411 199.739 367.216 199.921 367.042C200.101 366.869 200.309 366.722 200.542 366.602C200.773 366.482 201.03 366.388 201.314 366.319C201.597 366.25 201.868 366.214 202.126 366.214C202.388 366.214 202.641 366.25 202.88 366.32C203.12 366.389 203.345 366.492 203.55 366.628C203.755 366.763 203.942 366.931 204.11 367.13C204.276 367.325 204.421 367.552 204.543 367.806C204.663 368.056 204.76 368.334 204.834 368.636L205.648 371.964C205.721 372.265 205.762 372.554 205.771 372.828C205.779 373.107 205.755 373.374 205.698 373.626C205.641 373.879 205.553 374.115 205.433 374.329C205.314 374.544 205.162 374.739 204.979 374.913C204.798 375.087 204.59 375.235 204.358 375.356ZM215.605 360.159L217.075 359.589C218.524 363.333 219.975 367.078 221.433 370.819L219.798 371.454L217.954 366.702L213.171 368.558L215.015 373.31L213.38 373.944L209.022 362.713L210.657 362.079L212.556 366.973L217.339 365.118L215.44 360.223L215.605 360.159ZM216.872 360.047L215.898 360.425L217.669 364.989L218.368 364.719L218.983 366.303L218.284 366.574L220 370.996L220.974 370.617L216.872 360.047ZM217.826 366.371L217.467 365.448L212.684 367.304L213.043 368.227L217.826 366.371ZM217.798 365.32L218.156 366.243L218.524 366.1L218.165 365.177L217.798 365.32ZM210.455 362.537L209.481 362.915L213.582 373.486L214.556 373.107L212.841 368.686L212.375 368.867L211.761 367.282L212.226 367.102L210.455 362.537ZM212.713 368.355L212.354 367.431L212.219 367.484L212.578 368.408L212.713 368.355ZM224.211 357.066L225.621 356.357L225.892 356.896L228.635 355.516L228.2 354.653L221.148 358.203L221.582 359.066L224.325 357.685L224.053 357.146L224.211 357.066ZM225.464 356.833L224.529 357.303L224.641 357.526L225.575 357.056L225.464 356.833ZM226.052 357.213L230.716 366.478L229.149 367.266L224.484 358.002L221.425 359.542L220.672 358.047C223.231 356.752 225.793 355.46 228.358 354.177L229.111 355.673L226.052 357.213ZM230.239 366.321L225.735 357.372L224.801 357.842L229.305 366.79L230.239 366.321ZM247.496 355.98C247.147 356.239 246.794 356.447 246.439 356.6C246.081 356.754 245.715 356.856 245.348 356.904C244.98 356.95 244.616 356.944 244.261 356.884C243.905 356.824 243.554 356.709 243.212 356.543C242.873 356.378 242.548 356.161 242.24 355.893C241.935 355.628 241.646 355.313 241.375 354.95L239.393 352.296C239.122 351.934 238.902 351.566 238.734 351.197C238.564 350.824 238.447 350.451 238.384 350.077C238.32 349.7 238.309 349.332 238.353 348.974C238.396 348.616 238.495 348.266 238.645 347.927C238.795 347.589 238.995 347.269 239.246 346.97C239.495 346.672 239.796 346.392 240.143 346.132C240.488 345.875 240.842 345.667 241.201 345.511C241.561 345.355 241.925 345.252 242.292 345.203C242.661 345.155 243.025 345.16 243.38 345.221C243.736 345.281 244.085 345.396 244.427 345.566C244.767 345.732 245.091 345.951 245.398 346.218C245.703 346.485 245.993 346.801 246.265 347.164L248.247 349.819C248.518 350.182 248.739 350.549 248.907 350.918C249.076 351.289 249.192 351.661 249.255 352.031C249.318 352.405 249.329 352.773 249.286 353.131C249.243 353.489 249.146 353.84 248.996 354.18C248.844 354.519 248.641 354.842 248.39 355.143C248.141 355.441 247.843 355.721 247.496 355.98ZM246.299 356.273C246.63 356.13 246.96 355.937 247.284 355.695C247.609 355.452 247.887 355.192 248.117 354.916C248.347 354.64 248.532 354.346 248.671 354.037C248.806 353.73 248.894 353.412 248.933 353.089C248.971 352.764 248.962 352.431 248.904 352.091C248.848 351.748 248.739 351.406 248.585 351.066C248.428 350.723 248.22 350.378 247.962 350.032L245.98 347.377C245.721 347.031 245.449 346.733 245.164 346.485C244.881 346.238 244.582 346.037 244.27 345.884C243.959 345.73 243.642 345.625 243.321 345.571C242.999 345.516 242.671 345.512 242.338 345.555C242.002 345.599 241.669 345.694 241.341 345.836C241.013 345.978 240.683 346.172 240.356 346.417C240.03 346.66 239.749 346.922 239.518 347.198C239.289 347.472 239.105 347.764 238.97 348.07C238.833 348.377 238.745 348.693 238.706 349.016C238.667 349.34 238.676 349.675 238.734 350.017C238.792 350.362 238.9 350.707 239.056 351.049C239.212 351.392 239.42 351.737 239.677 352.083L241.66 354.738C241.916 355.081 242.188 355.378 242.473 355.625C242.756 355.871 243.056 356.072 243.368 356.224C243.679 356.376 243.998 356.48 244.32 356.534C244.642 356.588 244.969 356.594 245.303 356.552C245.635 356.508 245.968 356.415 246.299 356.273ZM246.476 354.612C246.686 354.455 246.865 354.287 247.01 354.111C247.155 353.935 247.271 353.745 247.356 353.546C247.442 353.349 247.497 353.145 247.519 352.935C247.542 352.725 247.533 352.508 247.492 352.284C247.452 352.059 247.378 351.833 247.274 351.607C247.169 351.381 247.031 351.152 246.86 350.923L244.81 348.178C244.637 347.947 244.456 347.747 244.268 347.581C244.079 347.416 243.882 347.281 243.68 347.179C243.479 347.076 243.272 347.006 243.065 346.968C242.859 346.931 242.648 346.924 242.433 346.951C242.218 346.975 242.005 347.033 241.795 347.123C241.583 347.213 241.371 347.337 241.161 347.494C240.95 347.651 240.77 347.82 240.623 347.998C240.477 348.174 240.361 348.362 240.276 348.56C240.19 348.757 240.136 348.962 240.113 349.171C240.091 349.38 240.101 349.597 240.143 349.819C240.185 350.043 240.259 350.269 240.365 350.495C240.471 350.723 240.612 350.953 240.784 351.184L242.834 353.929C243.006 354.158 243.186 354.357 243.373 354.523C243.558 354.687 243.753 354.821 243.956 354.926C244.157 355.029 244.362 355.099 244.568 355.138C244.774 355.175 244.986 355.181 245.201 355.156C245.416 355.131 245.63 355.073 245.84 354.985C246.052 354.894 246.265 354.769 246.476 354.612ZM247.284 354.336C247.118 354.537 246.919 354.725 246.689 354.897C246.456 355.071 246.218 355.209 245.979 355.311C245.736 355.413 245.489 355.48 245.243 355.508C244.994 355.538 244.747 355.531 244.505 355.487C244.264 355.442 244.026 355.36 243.794 355.241C243.566 355.124 243.346 354.973 243.137 354.788C242.931 354.605 242.734 354.389 242.549 354.142L240.5 351.397C240.314 351.149 240.161 350.897 240.044 350.645C239.924 350.391 239.841 350.136 239.794 349.884C239.746 349.629 239.735 349.379 239.76 349.134C239.786 348.891 239.851 348.652 239.95 348.421C240.048 348.19 240.182 347.973 240.349 347.771C240.515 347.571 240.715 347.383 240.948 347.209C241.18 347.036 241.416 346.898 241.655 346.796C241.896 346.693 242.142 346.627 242.39 346.598C242.639 346.567 242.886 346.575 243.129 346.619C243.369 346.663 243.608 346.745 243.84 346.862C244.072 346.979 244.294 347.131 244.503 347.315C244.711 347.5 244.909 347.717 245.095 347.965L247.145 350.71C247.329 350.956 247.48 351.207 247.596 351.458C247.713 351.711 247.795 351.966 247.841 352.221C247.888 352.477 247.898 352.729 247.872 352.973C247.846 353.215 247.782 353.454 247.683 353.685C247.585 353.914 247.452 354.132 247.284 354.336ZM254.617 347.592L254.891 347.334L252.145 344.42L251.741 344.8L250.593 343.58L250.997 343.201L248.925 341.001L248.485 341.415L247.58 340.454L247.259 340.757L255.033 349.01L255.391 348.673L254.487 347.714L254.617 347.592ZM255.149 347.091L257.337 345.029C257.48 344.895 257.597 344.756 257.69 344.613C257.782 344.47 257.851 344.322 257.897 344.17C257.942 344.016 257.964 343.861 257.964 343.707C257.964 343.552 257.94 343.393 257.893 343.233C257.846 343.071 257.775 342.912 257.683 342.76C257.588 342.604 257.469 342.45 257.327 342.3C257.182 342.145 257.032 342.014 256.878 341.907C256.728 341.803 256.574 341.722 256.418 341.665C256.261 341.609 256.103 341.576 255.948 341.567C255.793 341.557 255.637 341.57 255.482 341.605C255.327 341.642 255.176 341.703 255.03 341.786C254.881 341.871 254.735 341.981 254.592 342.115L252.403 344.176L255.149 347.091ZM257.581 345.288L255.392 347.349L256.052 348.05L258.201 346.026C258.451 345.791 258.663 345.543 258.836 345.288C259.006 345.036 259.136 344.775 259.225 344.509C259.315 344.243 259.365 343.976 259.374 343.708C259.382 343.44 259.35 343.167 259.279 342.895C259.205 342.621 259.093 342.354 258.942 342.095C258.788 341.834 258.593 341.578 258.359 341.329C258.122 341.077 257.875 340.865 257.621 340.694C257.369 340.525 257.108 340.395 256.839 340.304C256.571 340.216 256.301 340.167 256.034 340.161C255.765 340.154 255.494 340.187 255.221 340.26C254.948 340.333 254.681 340.448 254.422 340.601C254.159 340.756 253.899 340.954 253.646 341.192L251.498 343.215L252.16 343.918L254.349 341.857C254.512 341.703 254.681 341.576 254.854 341.478C255.03 341.378 255.213 341.305 255.401 341.26C255.591 341.216 255.781 341.2 255.969 341.212C256.159 341.224 256.348 341.264 256.537 341.33C256.725 341.399 256.906 341.494 257.08 341.615C257.253 341.735 257.422 341.882 257.586 342.057C257.745 342.225 257.879 342.399 257.986 342.578C258.096 342.759 258.179 342.945 258.234 343.133C258.29 343.325 258.319 343.517 258.319 343.707C258.32 343.896 258.292 344.084 258.238 344.269C258.181 344.456 258.098 344.633 257.988 344.804C257.88 344.972 257.744 345.134 257.581 345.288ZM255.134 347.592L254.989 347.729L255.649 348.43L255.794 348.293L255.134 347.592ZM251.757 344.299L251.902 344.162L251.24 343.459L251.095 343.595L251.757 344.299ZM251.255 342.957L253.404 340.933C253.674 340.679 253.954 340.465 254.242 340.296C254.53 340.126 254.828 339.998 255.13 339.917C255.434 339.835 255.739 339.798 256.043 339.806C256.348 339.814 256.651 339.868 256.95 339.967C257.251 340.068 257.541 340.213 257.818 340.4C258.094 340.585 258.362 340.815 258.617 341.086C258.869 341.353 259.079 341.631 259.247 341.916C259.417 342.205 259.542 342.502 259.622 342.804C259.703 343.109 259.739 343.416 259.729 343.719C259.719 344.023 259.662 344.324 259.561 344.623C259.461 344.922 259.316 345.211 259.131 345.487C258.945 345.762 258.716 346.029 258.443 346.285L255.018 349.512C252.276 346.579 249.511 343.664 246.758 340.742L252.249 335.57L253.397 336.789L249.183 340.758L251.255 342.957ZM248.278 339.797L248.94 340.5L252.896 336.774L252.234 336.071L248.278 339.797ZM248.682 340.743L248.02 340.04L247.838 340.211L248.501 340.914L248.682 340.743ZM254.038 333.277L255.05 331.908L263.259 333.979L258.592 327.121L259.737 325.574L265.114 333.825C265.309 334.126 265.476 334.415 265.614 334.691C265.754 334.971 265.865 335.238 265.945 335.486C266.027 335.74 266.08 335.988 266.102 336.229C266.125 336.473 266.117 336.708 266.079 336.934C266.04 337.162 265.969 337.39 265.868 337.615C265.768 337.836 265.636 338.059 265.473 338.279L264.655 339.384L263.285 338.37L264.102 337.265C264.189 337.148 264.257 337.028 264.307 336.905C264.356 336.784 264.388 336.66 264.402 336.535C264.415 336.409 264.41 336.275 264.389 336.136L264.342 335.922L253.877 333.494L254.038 333.277ZM255.193 332.31L254.484 333.27L264.198 335.523C264.146 335.405 264.085 335.281 264.014 335.151C263.912 334.962 263.788 334.759 263.642 334.542L263.56 334.421L255.193 332.31ZM263.777 334.109L264.3 334.241L265.021 336.079L264.726 336.011L264.739 336.08C264.766 336.252 264.771 336.416 264.755 336.574C264.737 336.733 264.697 336.888 264.636 337.038C264.577 337.186 264.493 337.333 264.387 337.476L263.781 338.296L264.581 338.888L265.188 338.068C265.335 337.87 265.454 337.67 265.544 337.469C265.633 337.272 265.695 337.072 265.729 336.875C265.762 336.678 265.768 336.473 265.75 336.262C265.73 336.049 265.682 335.825 265.607 335.594C265.532 335.36 265.428 335.111 265.297 334.85C265.167 334.59 265.006 334.311 264.816 334.018L259.719 326.195L259.028 327.129L263.777 334.109ZM271.08 326.974L271.196 326.744L267.891 325.07L267.695 325.457L266.238 324.719L266.434 324.331L263.401 322.794L263.205 323.182L262.049 322.596L261.773 323.141L271.887 328.266L272.164 327.72L271 327.132L271.08 326.974ZM271.356 326.428L272.523 324.126C272.722 323.734 272.857 323.377 272.927 323.056C272.996 322.748 273.004 322.474 272.95 322.237C272.897 322.002 272.795 321.794 272.644 321.615C272.489 321.431 272.283 321.273 272.027 321.143L272.005 321.132C271.826 321.041 271.65 320.972 271.481 320.926C271.312 320.881 271.148 320.856 270.993 320.854C270.842 320.854 270.694 320.876 270.553 320.924C270.411 320.971 270.273 321.044 270.14 321.142C270.005 321.241 269.876 321.368 269.754 321.524C269.629 321.683 269.511 321.873 269.399 322.093L268.051 324.753L271.356 326.428ZM272.84 324.286L271.673 326.588L272.52 327.017L273.952 324.191C274.102 323.894 274.215 323.601 274.29 323.313C274.364 323.028 274.401 322.747 274.401 322.471C274.402 322.198 274.367 321.936 274.295 321.69C274.225 321.445 274.117 321.212 273.975 320.996C273.688 320.554 273.276 320.197 272.742 319.927L272.719 319.915C272.526 319.817 272.329 319.741 272.128 319.688C271.929 319.636 271.726 319.605 271.521 319.598C271.318 319.591 271.118 319.606 270.926 319.645C270.734 319.684 270.545 319.748 270.361 319.835C270.181 319.92 270.013 320.031 269.859 320.164C269.703 320.298 269.559 320.457 269.429 320.639L268.807 321.513L269.114 320.486C269.179 320.269 269.219 320.06 269.232 319.859C269.245 319.659 269.234 319.467 269.197 319.286C269.159 319.101 269.102 318.926 269.026 318.763C268.952 318.603 268.858 318.454 268.747 318.32C268.633 318.18 268.506 318.055 268.369 317.944C268.227 317.832 268.074 317.734 267.91 317.651C267.63 317.509 267.355 317.404 267.089 317.336C266.824 317.269 266.565 317.239 266.314 317.244C266.067 317.248 265.827 317.292 265.597 317.373C265.366 317.455 265.141 317.577 264.925 317.735C264.708 317.894 264.503 318.094 264.314 318.333C264.12 318.578 263.94 318.864 263.776 319.188L262.405 321.893L263.245 322.318L264.491 319.859C264.671 319.504 264.866 319.212 265.076 318.981C265.293 318.743 265.528 318.569 265.776 318.462C266.031 318.352 266.301 318.31 266.585 318.335C266.863 318.36 267.156 318.45 267.46 318.605C267.752 318.752 267.989 318.925 268.17 319.121C268.356 319.323 268.484 319.55 268.552 319.802C268.62 320.052 268.628 320.323 268.577 320.613C268.527 320.893 268.421 321.195 268.259 321.515L266.91 324.175L267.735 324.593L269.083 321.933C269.205 321.693 269.336 321.483 269.475 321.306C269.616 321.124 269.768 320.975 269.929 320.858C270.09 320.737 270.262 320.647 270.44 320.588C270.619 320.528 270.806 320.498 270.996 320.499C271.184 320.502 271.378 320.53 271.573 320.583C271.766 320.636 271.965 320.714 272.165 320.816L272.186 320.827C272.488 320.979 272.731 321.167 272.916 321.387C273.103 321.612 273.231 321.87 273.296 322.16C273.362 322.446 273.354 322.772 273.274 323.132C273.198 323.48 273.052 323.865 272.84 324.286ZM271.513 326.904L271.476 326.975L272.324 327.404L272.36 327.333L271.513 326.904ZM267.539 324.98L267.575 324.909L266.75 324.491L266.714 324.562L267.539 324.98ZM266.594 324.015L267.942 321.355C268.088 321.068 268.183 320.799 268.226 320.553C268.269 320.314 268.263 320.093 268.21 319.894C268.157 319.7 268.055 319.521 267.908 319.361C267.757 319.196 267.553 319.049 267.3 318.921C267.036 318.787 266.786 318.708 266.554 318.688C266.329 318.668 266.116 318.702 265.917 318.788C265.714 318.876 265.52 319.02 265.338 319.22C265.15 319.427 264.972 319.694 264.807 320.018L263.561 322.478L266.594 324.015ZM263.049 322.705L263.085 322.634L262.246 322.209L262.21 322.279L263.049 322.705ZM261.733 322.435L263.46 319.028C263.636 318.68 263.829 318.374 264.036 318.112C264.247 317.847 264.474 317.625 264.715 317.448C264.959 317.269 265.214 317.131 265.479 317.038C265.744 316.945 266.021 316.894 266.307 316.889C266.59 316.883 266.88 316.917 267.175 316.992C267.467 317.066 267.766 317.181 268.07 317.335C268.259 317.43 268.432 317.542 268.589 317.667C268.748 317.795 268.893 317.937 269.022 318.095C269.152 318.253 269.26 318.428 269.348 318.613C269.435 318.8 269.5 319.001 269.544 319.215C269.588 319.431 269.602 319.654 269.587 319.882L269.583 319.934L269.627 319.895C269.805 319.742 269.999 319.614 270.209 319.514C270.417 319.415 270.634 319.343 270.856 319.297C271.077 319.252 271.305 319.235 271.533 319.243C271.767 319.252 271.996 319.286 272.219 319.345C272.442 319.404 272.663 319.489 272.88 319.599L272.903 319.611C273.493 319.91 273.95 320.308 274.271 320.802C274.433 321.049 274.556 321.314 274.636 321.591C274.717 321.87 274.757 322.164 274.756 322.471C274.757 322.777 274.715 323.088 274.634 323.402C274.553 323.713 274.43 324.03 274.268 324.35L272.043 328.743C268.466 326.922 264.883 325.102 261.296 323.298L261.733 322.435ZM280.453 309.137L272.305 306.224L278.692 314.589L278.18 316.02C274.405 314.66 270.624 313.311 266.843 311.967L267.431 310.321L275.875 313.34L269.367 304.907L269.871 303.498C273.651 304.846 277.432 306.195 281.209 307.552L280.62 309.197L280.453 309.137ZM271.691 306.004L271.194 305.827L271.137 304.694L271.908 305.704L280.405 308.742L280.754 307.767L270.087 303.952L269.768 304.844L276.493 313.561L276.96 313.729L276.91 314.683L276.277 313.862L267.647 310.776L267.298 311.751L277.965 315.565L278.293 314.65L271.691 306.004Z" fill="#EAE9E7"/>
<path d="M38.109 216.262L46.585 205.068C47.1118 204.382 47.5181 203.691 47.8088 202.993C48.0945 202.296 48.2427 201.665 48.2427 201.099V201.066C48.2427 199.974 47.9244 199.129 47.2932 198.53C46.6621 197.937 45.7671 197.641 44.6086 197.641C43.5217 197.641 42.6433 197.959 41.9683 198.607C41.2929 199.25 40.8813 200.166 40.7331 201.358V201.368H37.8183V201.358C38.0103 200.012 38.4057 198.871 39.004 197.921C39.597 196.971 40.3654 196.246 41.3091 195.752C42.2536 195.253 43.3406 195.001 44.5758 195.001C45.97 195.001 47.1557 195.242 48.144 195.72C49.132 196.197 49.8845 196.889 50.3947 197.8C50.911 198.711 51.1688 199.809 51.1688 201.099V201.116C51.1688 201.884 50.9768 202.73 50.5977 203.652C50.2194 204.574 49.6808 205.491 48.9952 206.402L41.743 215.993H51.2954V218.628H38.109V216.262ZM62.1536 218.869C59.9683 218.869 58.3106 218.282 57.1801 217.118C56.044 215.949 55.4782 214.318 55.4782 212.227V201.594C55.4782 199.496 56.0489 197.86 57.1858 196.697C58.3219 195.533 59.9796 194.951 62.1536 194.951C64.3442 194.951 66.0019 195.533 67.1324 196.691C68.2636 197.85 68.829 199.486 68.829 201.594V212.227C68.829 214.329 68.2636 215.96 67.1275 217.123C65.9906 218.288 64.3329 218.869 62.1536 218.869ZM62.1536 216.229C63.4817 216.229 64.4644 215.883 65.0907 215.197C65.7166 214.505 66.0295 213.511 66.0295 212.227V201.594C66.0295 200.298 65.7166 199.304 65.0907 198.618C64.4644 197.932 63.4817 197.592 62.1536 197.592C60.8251 197.592 59.8481 197.932 59.2218 198.618C58.591 199.304 58.2781 200.298 58.2781 201.594V212.227C58.2781 213.511 58.5963 214.505 59.2275 215.197C59.8587 215.883 60.8357 216.229 62.1536 216.229Z" fill="#EAE9E7"/>
<path d="M257.963 216.348L266.439 205.154C266.966 204.469 267.372 203.777 267.663 203.079C267.949 202.383 268.097 201.751 268.097 201.186V201.153C268.097 200.06 267.778 199.215 267.147 198.617C266.516 198.024 265.621 197.727 264.463 197.727C263.376 197.727 262.498 198.046 261.823 198.694C261.147 199.336 260.735 200.252 260.587 201.444V201.455H257.672V201.444C257.864 200.099 258.26 198.957 258.858 198.007C259.451 197.058 260.219 196.333 261.163 195.839C262.108 195.339 263.195 195.087 264.43 195.087C265.824 195.087 267.01 195.328 267.998 195.806C268.986 196.284 269.739 196.975 270.249 197.886C270.765 198.798 271.023 199.896 271.023 201.186V201.203C271.023 201.971 270.831 202.816 270.452 203.739C270.073 204.661 269.535 205.577 268.849 206.489L261.597 216.079H271.149V218.714H257.963V216.348ZM280.981 218.714H278.181V198.095L274.371 200.461V197.552L277.699 195.328H280.981V218.714Z" fill="#EAE9E7"/>
<path d="M159.523 248.521C162.647 248.521 165.469 249.905 167.504 252.14C169.501 254.334 170.738 257.355 170.738 260.679C170.738 264.003 169.501 267.023 167.504 269.218C165.47 271.453 162.648 272.837 159.523 272.837C156.399 272.837 153.577 271.453 151.542 269.218C149.545 267.023 148.309 264.003 148.309 260.679C148.309 257.355 149.545 254.334 151.542 252.14C153.577 249.905 156.399 248.521 159.523 248.521ZM165.072 254.353C163.645 252.786 161.682 251.815 159.523 251.815C157.364 251.815 155.402 252.786 153.975 254.353C152.51 255.963 151.603 258.199 151.603 260.679C151.603 263.159 152.51 265.396 153.975 267.005C155.401 268.573 157.364 269.543 159.523 269.543C161.682 269.543 163.645 268.573 165.072 267.005C166.537 265.396 167.443 263.159 167.443 260.679C167.443 258.199 166.537 255.963 165.072 254.353Z" fill="#EAE9E7"/>
<path d="M159.523 173.212C162.647 173.212 165.469 174.595 167.504 176.831C169.501 179.025 170.738 182.046 170.738 185.369C170.738 188.693 169.501 191.714 167.504 193.908C165.47 196.144 162.648 197.527 159.523 197.527C156.399 197.527 153.577 196.144 151.542 193.908C149.545 191.714 148.309 188.693 148.309 185.369C148.309 182.046 149.545 179.025 151.542 176.831C153.577 174.595 156.399 173.212 159.523 173.212ZM165.072 179.044C163.645 177.476 161.682 176.506 159.523 176.506C157.364 176.506 155.402 177.476 153.975 179.044C152.51 180.653 151.603 182.889 151.603 185.369C151.603 187.85 152.51 190.086 153.975 191.696C155.401 193.264 157.364 194.233 159.523 194.233C161.682 194.233 163.645 193.263 165.072 191.696C166.537 190.086 167.443 187.85 167.443 185.369C167.443 182.889 166.537 180.653 165.072 179.044Z" fill="#EAE9E7"/>
</svg>

