<svg  viewBox="0 0 119 194" fill="none" xmlns="http://www.w3.org/2000/svg">
<path d="M72.9076 136.384L71.8637 145.619C64.113 145.842 51.9906 146.956 44.6209 148.608C33.4112 151.121 24.8305 154.708 18.8797 159.37C12.9288 164.031 10.5088 168.839 11.6294 173.835C12.8219 179.155 17.3063 182.416 25.1238 183.607C32.9414 184.797 43.5766 183.906 56.98 180.902C72.8612 177.341 85.3997 170.862 94.669 161.403C103.938 151.946 107.473 142.409 105.306 132.742C104.077 127.258 101.274 122.939 96.8392 119.71C92.404 116.481 84.168 113.422 72.1532 110.442C55.6439 106.252 44.6417 101.893 39.1168 97.416C33.6406 92.9697 29.9854 86.7513 28.2102 78.8309C26.416 70.8296 27.4566 62.1503 31.3895 52.8651C35.3229 43.5796 41.7572 34.4162 50.743 25.4058C56.8174 19.394 63.4263 14.2437 70.6014 9.90553C77.7447 5.61653 84.4798 2.74144 90.7349 1.33924C97.8019 -0.24552 103.721 0.0916226 108.534 2.33969C113.346 4.58813 116.342 8.43871 117.545 13.7996C124.275 43.8226 79.5003 65.3621 56.291 74.1409C55.5751 74.4111 56.1337 74.2062 55.4602 74.4527L54.614 64.68C70.4808 58.0813 112.784 36.7837 107.573 17.2719C106.714 14.0555 105.292 11.8539 102.915 10.7657C100.538 9.678 97.2784 9.59825 93.054 10.5454C88.3024 11.6108 82.8799 14.063 76.838 17.9344C70.7858 21.7653 64.6781 26.6753 58.5938 32.6466C50.5275 40.4271 44.695 48.0901 41.1192 55.5464C37.5445 63.0026 36.4288 69.8216 37.7939 75.9142C39.0238 81.3976 41.9529 85.9024 46.601 89.5096C51.2392 93.0771 58.1845 96.0844 67.5075 98.4735C69.6939 99.0922 72.9776 99.8492 77.2862 100.803C87.1281 103.033 94.0624 105.232 98.1575 107.513C102.884 109.951 106.886 113.149 110.221 117.179C113.547 121.169 115.677 125.341 116.633 129.605C119.556 142.643 115.357 154.931 104.087 166.501C92.7763 178.081 76.7238 186.201 55.8472 190.881C40.4536 194.332 27.94 194.834 18.3366 192.337C8.74223 189.881 3.05366 184.673 1.26897 176.712C-0.324859 169.604 2.56911 162.344 9.95922 154.971C17.3501 147.598 27.381 142.491 40.0942 139.641C50.1413 137.388 62.5321 136.07 72.9076 136.384Z" fill="#EAE9E7"/>
<path d="M63.5231 129.521C66.6468 129.521 69.469 130.905 71.5039 133.14C73.501 135.334 74.7373 138.355 74.7373 141.679C74.7373 145.003 73.501 148.023 71.5039 150.218C69.4694 152.453 66.6476 153.837 63.5231 153.837C60.3985 153.837 57.5763 152.453 55.5422 150.218C53.5451 148.023 52.3088 145.003 52.3088 141.679C52.3088 138.355 53.5451 135.334 55.5422 133.14C57.5771 130.905 60.3985 129.521 63.5231 129.521ZM69.0718 135.353C67.6446 133.786 65.6819 132.815 63.5231 132.815C61.3642 132.815 59.4015 133.786 57.9743 135.353C56.5094 136.963 55.6027 139.199 55.6027 141.679C55.6027 144.159 56.5094 146.396 57.9743 148.005C59.4007 149.573 61.3638 150.543 63.5231 150.543C65.6819 150.543 67.645 149.573 69.0718 148.005C70.5367 146.396 71.4431 144.159 71.4431 141.679C71.4431 139.199 70.5367 136.963 69.0718 135.353Z" fill="#EAE9E7"/>
<path d="M63.5231 54.2118C66.6468 54.2118 69.469 55.5955 71.5039 57.8311C73.501 60.0247 74.7373 63.0457 74.7373 66.3694C74.7373 69.6931 73.501 72.7137 71.5039 74.9081C69.4694 77.1437 66.6476 78.5274 63.5231 78.5274C60.3985 78.5274 57.5763 77.1437 55.5422 74.9081C53.5451 72.7137 52.3088 69.6931 52.3088 66.3694C52.3088 63.0457 53.5451 60.0247 55.5422 57.8311C57.5771 55.5955 60.3985 54.2118 63.5231 54.2118ZM69.0718 60.044C67.6446 58.4762 65.6819 57.5056 63.5231 57.5056C61.3642 57.5056 59.4015 58.4762 57.9743 60.044C56.5094 61.6529 55.6027 63.8893 55.6027 66.3694C55.6027 68.8495 56.5094 71.0863 57.9743 72.6956C59.4007 74.2637 61.3638 75.2335 63.5231 75.2335C65.6819 75.2335 67.645 74.2629 69.0718 72.6956C70.5367 71.0863 71.4431 68.8495 71.4431 66.3694C71.4431 63.8893 70.5367 61.6529 69.0718 60.044Z" fill="#EAE9E7"/>
</svg>
